<svg xmlns="http://www.w3.org/2000/svg" xmlns:xlink="http://www.w3.org/1999/xlink"><symbol viewBox="4 3 992 993" id="codepen"><path fill-rule="evenodd" d="M977 313.4L523.6 11.2c-14.3-9.6-33-9.6-47.3 0L23 313.4c-11.3 7.4-19 21-19 35.5v302c0 14.5 7.7 28 19 35.6l453.3 302.2c7.2 4.8 15.4 7.2 23.7 7.2 8.2 0 16.5-2.4 23.6-7.2L977 686.6c11.3-7.5 19-21 19-35.5V349c0-14.5-7.7-28.2-19-35.6zm-435.4-187l334 222.5-149.2 99.7L541.6 325V126.4zm-85.2 0V325L271.6 448.8 122.4 349l334-222.7zm-368 302.3L194.8 500 88.2 571.3V428.7zm368 445L122.4 651l149.2-99.7L456.4 675v198.7zm42.6-273L348.3 500 499 399.2 649.8 500 499 600.8zm42.6 273V675l184.8-123.7L875.6 651l-334 222.7zm368.2-302.4L803 500l107-71.3v142.6z"/></symbol><symbol viewBox="4 121 993 758" id="gitub"><path fill-rule="evenodd" d="M224.7 492.2c-3-5.7-5.5-11.6-7.8-17.8-40.8-.3-166 5.4-209 16-2.2 0-3.6-1-4-2.4-.3-1.7.7-3.4 2.4-3.8 42.6-10.5 165-16.3 208.2-16-9.8-28.6-14-61.2-14-97.6 0-64.7 20.2-89 47.5-123.5-20.8-73.6 7.5-124 7.5-124s43.8-9 126.6 50c45-19.2 164.6-20.8 221.2-4.3 34.7-22.8 98.3-55.2 124-46 6.8 11 21.8 43.3 9 114.3 8.7 15.6 54 48.8 54 142.6-.6 34.6-4.3 64-11 88.6 108-1 171.5 8 215.2 16 1.7.3 3 2 2.6 3.6-.3 1.6-1.7 2.6-3.2 2.6-44.3-8-108-16.8-216.4-15.8-2 6.2-4 12.2-6.4 18 37 1 138.5 5 221.2 30 1.7.7 2.7 2.4 2 4-.3 1.5-1.5 2.4-3 2.4-84.8-25.6-188.4-29-223-30.3-30 65.5-91.5 90-191 100 32.3 20.2 41.5 45.5 41.5 114 0 68.3-1 77.4-.7 93.2.3 25.7 38.4 38 37 46.4-1.4 8.2-32 7-46 2-40.4-14-36.4-47.3-36.4-47.3l-1.3-91.3s2.7-49.2-15.6-49.2V816c0 32.7 23 42.5 23 54.6 0 20.6-42-2-55-15-19.6-19.5-17.3-61-16.8-94 .3-31.8-.4-101.3-.4-101.3l-13.4.3s5.5 151.8-7 179.5c-16.2 35.6-65 47.8-65 31.6 0-11 12-7.4 18.6-31.8 5.7-20.7 3.7-175.5 3.7-175.5s-15.6 9.2-15.6 38.2c0 13.3-.5 89-.5 111.6 0 28.5-40.6 44.6-60 44.6-10 0-22.2-.5-22.2-5.7 0-13.2 37-21 37-48.2 0-23.6-.4-84.5-.4-84.5s-19 3.2-45.5 3.2c-67.3 0-88.6-42.7-98.7-66.5-13.2-31-30.3-45.7-48.5-57.3-11-7.2-13.7-15.7-.8-18 59.6-11.2 74.8 67 114.6 79.4 28.5 9 65 5.2 83-6.5 2.5-24 20-44.5 34.3-55.4C319 589.6 259 554.7 228 498.6 122.3 501 62.3 516 18 527l-9 2c-2.2 0-3.5-1-4-2.3-.4-1.8.7-3.6 2.4-4l9.4-2.3c44-11 103.5-25.7 208-28.5z"/></symbol><symbol viewBox="0 0 1000 1000" id="signature"><path fill-rule="evenodd" d="M865.7 507c-.3 0-.3 0 0 0 3.7-4.8 8.4-9 14.2-12 6-3.6 12.2-5 19-5h4c-6 4.6-11.7 8.6-17.3 12-5.8 3.5-11.8 5.3-18.2 5.3h-1.8v-.2zM730 523c10-7.7 20-15 30.4-22 11.6-6.2 22.5-10.2 32.6-12.2.4 1.5.6 3.6.6 5.5 0 4-1.8 7.2-6 9l-15.2 5.5-20.4 9.4c-7.2 3-13.2 4.7-18.5 4.7H730zm-49.6-125.8c9 19.3 1.8 36.3 1.5 40.3 0 1-1 1.5-1 2.5l-1.8-7c-3.7-11.3-9.5-18.7-10.4-25.2-2.3-17.3 4.4-18.2 11.6-10.6zM220 444.4c-8.5.5-32 4.7-33.5 4.7-3 0-7.2 2-12.3 5-9.6 6.2-19.4 15.2-29 27.2-12.2 14.5-18.2 27.2-18.2 37.5v2.2c0 4.8 1 8.2 2.6 10.8 1.8 1.8 4 3 7 3 2.6 0 6.6-1.2 12-4 5.8-2.3 9-3.5 9.8-4.3 14.5-5.4 26-12 34.8-20 11.6-10 17.4-21.7 17.4-34.4 0-2.8 0-4.8-.5-8.2-.6-2.5 4.4-6.4 9-6v1.8l1.4 5.5v7c0 5.4-.7 10.8-2.2 15.5-1.8 5-4 9.8-7.6 14.5 3 3.7 5.5 10 7 19.5 1.4 8 6.4 12.3 15.5 13V531c.5-1 .5-2 .5-2.3v-6.3c-.4-2-.4-4-.4-6.4 0-3.3.5-6 1.2-8.3.7-2.4 2.4-5 5-7.3 5-5 9-8.7 10.8-11.8 5.8-4 11-8 15.2-12 1 5.7 1.8 11.3 2.5 16.6.6 5 .8 11.2.8 18v11.2c0 3.2.3 6 1.4 8.3 1.2 2.2 4 4.5 8.3 7.3 3.2-5 7.2-12.7 12-23.3l9.7-21c1.3 7.6 2.6 15.8 4.4 24.3 2.3 11.4 7.8 17 16.3 16.3 4.7 0 10-1 16-3 130-15.5 71-171-65-194.6-77.4-13.6-203-7.3-250.2 69-65.3 124 36.3 219.3 149.8 232 171.1 12.7 250-85.7 266.3-111.7 0 0 12.3-13 15.4-29.8 1.8 1 7 5.5 15.8 14 8.5 8 15 12 19 12 2.8 0 5-1 6.8-3.3 1.4-2.3 2.7-5.2 3.6-9.2.3-3.6 1-5.4 1-6.3l2.6-6 5.8-11.8c2.7-5.4 6.2-11.6 10.5-18.5 3.7-4 7.3-8.3 11-13.2 2.3 5.4 4 13.4 5 23.6.5 4.3 1 12.7 1.2 25 .4 12.3 5 30.8 10.4 34.4 17.5 12 26.7-31.3 32.5-46.4v2.6c.4 5.8.6 14.5.6 25.3v6.4c0 5.3 1 9.3 3 12 2.3 2.2 5.2 3.5 9.2 3.5 5.5 0 12.7-2.7 21.8-8.4 5.4-3.5 11-7.5 16.8-12.5.4 1.8 1.8 4.3 3.7 8 2.7 6 7.6 9.2 14 9.2 3.5 0 23.5 2.3 30.7-6.2l.4.4c2.2-3.4 3.6-6.6 4.7-10 1-3.2 1.8-6.8 2.6-10.4l1-7.3.3 1c2.4 8.3 5 14.6 7.6 18.8 3.2 5.5 15.7 11 22 12.2 3.7 3.3 8.4 5 13.5 5 3.2 0 7.2-1 12-2.6l13.7-5c12.7-7.2 25-14 36.3-21 .5 8.2 1 17.3 1.8 27.3.4 9.5 43.5 4.4 49.5-6 .7 0 1.4.6 2.5 2l4.7 4.8c3 2.3 5.8 4 9 5 3.7.6 7.4 1 11.5 1 8 0 24-.6 33-4 19-7.3 37.6-19.4 38.5-20.3l3.2-2.6c21.8-14 23.2-20.4 25.8-20 79 93.5-219.4 46.2-464.2 56.5-102.3 4.2-150.5 94.7-148.7 95-.4 9 12.3 25.8 14 13 19.7-50 99-96 147-95.3 392.3 6 478.6 29.8 479-49.7-2.4-18.6-12-32.6-14-34-3.2-2.2-5.6-4.2-7.4-5.8l5.4-5.5c1.5-1.4 2.8-3 3.7-4.7 1.8-2.5 1-3 .7-5.4 0-2.5-3.6-6.5-6.7-8.5-4.7-3.2-6.4-1-12.3 6.8l-10 12.6c-4 3.6-14.2 31.5-36.8 42.4-1.5.7-3 1.8-4 3.2-6.4 2.6-13.4 4.2-19.6 6.2-8.5 3-16.7 1-23.6 1-4 0-7.2-.3-10.8-.8 3-2.7 7.6-5.5 13.4-7.3l18.5-5.8c5.4-2.4 10-5.5 14-9 5-5.2 7.5-10 7.5-15 0-3.3-1.2-6.2-3.6-9-3.6-5-9-7.3-16-7.3-6.8 0-14.4 1.8-23 6.3-7.2 3.6-13.4 7.8-17.4 12.2-2.7 2.5-5 7.2-7.6 13.6-2.3 6.5-4.3 10.3-5.8 11.2-1.4 1-14 7.8-15.8 8v.4c-1.8.5-3.6 1.4-5.4 2.3-4.7 2.4-13.8.4-13.8-3V499c0-8.6 0-17 .4-25.6.3-8.5 1-16.3 1.8-23l1.4-7.6c.4-2.8.8-5.5.8-8 0-3.3-.8-6-2.2-8.2-1.3-2.3-3.6-3.6-7.3-3.6-3.2 0-5.4 1.8-6.3 5-1 2.8-1.5 6.6-1.5 11v5.6l.6 5.4v9.4c0 3.7-.6 6.6-1.8 8.4-1.8 1.8-5.5 3.6-11 5.4-7.2 2.7-15 6.5-24 11.6l-23.2 14.5-11 6.6c-5.3 3.5-9 7-11.5 10.4-2.2-2.2-8-3-9-6-.8-3-2.3-7.3-4.3-12.7-2-5.8-3.6-9.8-4-12.2l-5.6-16.8 2.3-19.6c.7-6.6 1.8-13.7 3-21 2-11.7 2.6-20.8 1.5-27-1-6-3-9.7-6.7-11-8.4-11.6-24.7-7.3-28.5-3.6-11.5 4.7-8.7 19.2-9 21 0 1.8.3 3.6.8 5.4.7 2 1.8 4.6 3.6 7.3 4.8 8 7.2 12.2 8 13.3 2 4.4 3.7 8.6 5.2 12.7l5.8 18.2c-.7 2.7-1.8 6.3-2.7 11.4-2 7.2-2.4 35.5-12.7 45.7-1.8.7-4 .5-5.5 0-5.3-1.3-9-6-9-11 0-2-.5-4.6-1-8-.6-3-1-5.3-1-7v-5.6c0-8-.7-13.8-2.5-17.2-1.8-3.6-5-6-9.6-7.6-2.4 4.2-3.7 10.4-4 18.4 0 8-1.2 13.8-3.2 17.2-2.7 5.4-7.6 10.5-14.5 15-6.7 4-12.7 6.6-17.7 7l-1.3-7.7v-22.4c0-1.4 0-4 .5-8.3 1-4 1-6.7 1-8.2 0-3-.4-6.2-1.7-9.7-1.7-5-4-7.2-6.8-7.2-1 0-1.8.4-3 1.2-9.7-5.5-21.6 59-24.3 58.3-5.2-1-2.3-5-3.8-16-3.6-22.6-5.4-37.4-5.4-44.5v-25.4c0-3.3-1-6.7-3-10-2-3.8-4.6-5.2-7.3-5.2-3 0-5.5 1.8-8.2 5.4v3.6l-19.2 29-18 28.2c-5 6.5-9 12.3-12.2 17.4-6.2-4.4-12-9.5-17-15.3-6-7-9.5-14.5-10.4-22.3-1-8-1.8-13-2.2-15.2-1.4-6.2-5.4-10.5-11.6-13l-2 7.6c-.7 1.8-1 4-1 5.8 0 1.8 0 3 .7 4.3l-3.7.5-8 1.2c0 5 2.6 10.2 7 15.8 4 5.4 6.3 10 6.3 14 0 18.6-17.7 39-17.7 39-20.3 22-78.3 104-243 98.4-28-.6-195-47-149.5-192.8 25.3-81.6 197.6-100.5 264.7-70.8 107 47.2 137.4 137 46.2 155.6l-9.6-.3c-5.3 0-8.6-2-10.2-5.5-1-2.5-1.8-7.2-1.8-14.5 0-6.2-.6-11-1.5-14-1-3.4-2.7-6-4.7-8-1.8-2-4.2-3-6.5-3-4 0-8.2 3-13 8.3-2.4 3-5 6.7-7.7 11.6-1.3-5.8-2.5-12-4.3-18.5-2.6-8.2-6.4-12.6-11.5-12.6-2 0-4.5 1-7.2 2.4-.4 0-6.4 5-17.6 14.5-4 3.3-7 5.4-9 6.4l.5-7 .3-10.3c0-4.7-.5-8.7-1.8-12-.7-3.2-2.7-5.7-5.8-7.2-1.8-.7-3-1.3-4.5-1.3-1.8 0-2.7.3-3.6 1v.4zm-23.3 28c0 10.4-7.3 20.6-21 30-12.6 8.7-23.8 13-33.4 13 1.8-5 5.4-11.4 10.5-19 5.4-7.8 10.3-13.2 15.4-16.7l12-9c5.4-3.6 9.8-5.5 12.7-5.5 1 0 2 .6 2.8 2 .7.6 1 2.4 1 5.3zm-92.5-57.2c0-3-16.7-4-16.3 5.4.2 2.6-1.2 65.3-1.2 69.5 0 2 0 5.5-.6 11.3l-.5 12-4.2 27.2c0 4 1 7.8 2.7 11 2 3.5 4.2 5.3 7.3 5.3 1.5 0 3-.7 4.7-1.4 1.8-1 3.3-3 3.6-6 .8-3 1-7.3 1-12.2v-13.8c0-.7.5-3.6 1.6-9l.3-6.5.6-9.2-.6-9V479l2-63.8-.5-.2z"/></symbol><symbol viewBox="2 95 997 810" id="twitter"><path fill-rule="evenodd" d="M880.6 223c42.2-25.3 74.6-65.3 90-113-39.6 23.4-83.3 40.4-130 49.5-37-39.7-90.3-64.5-149-64.5-113 0-204.4 91.5-204.4 204.3 0 16 1.8 31.6 5.3 46.6-169.8-8.6-320.4-90-421.2-213.6-17.5 30.2-27.6 65.3-27.6 102.7 0 71 36 133.6 91 170.2-33.6-1-65-10.2-92.7-25.5v2.5c0 99 70.4 181.6 164 200.4-17.2 4.7-35.3 7.2-54 7.2-13 0-26-1.3-38.4-3.7 26 81.3 101.5 140.4 191 142-70 54.8-158 87.5-254 87.5-16.3 0-32.6-1-48.6-3 90.4 58 197.8 92 313.2 92 376 0 581.4-311.4 581.4-581.5 0-8.8-.2-17.6-.6-26.4 40-28.8 74.6-64.8 102-105.8C961.4 207 922 218 880.6 223z"/></symbol></svg>