<svg xmlns="http://www.w3.org/2000/svg" xmlns:xlink="http://www.w3.org/1999/xlink"><symbol viewBox="21 91 958 819" id="brain"><path fill-rule="evenodd" d="M979 500c0 40.7-16 77.7-42 105.3-4.5 58.3-41.4 107.4-92.8 129.6v.4c-62.8 36.6-100.3 99-111.8 174h-58V735.5c.4-54.2 17.4-88.8 53-110.2 13-7.5 25-16 35-25.7 26.6 9.6 50 28.2 65 54.8 3 5.2 8.6 8 14 8 2.8 0 5.6-.5 8-2 8-4.3 11-14.2 6.4-22-16.8-29.8-42.2-51.7-71-64.8 14.7-22.7 23-49.8 22.6-82.4l.2-.5c0-14.7-2.2-29-6-42.5 33.8-6.5 63.7-23.7 85.7-48 6-6.6 5.6-17-1-23-6.8-6-17-5.4-23 1.2-19 20.8-45 35-74.3 39-23.6-43.8-67.5-74.8-119-80.5 3.4-27.8 16-52.5 34.7-71.4 6.3-6.3 6.3-16.6 0-22.8-6.3-6.4-16.7-6.4-23 0-24 24-40.2 56.3-44.3 92.2-60.4-7.6-107-59-107-121.4 0-9-7.5-16.3-16.2-16.3-9.2 0-16.3 7.4-16.3 16.3 0 10.5 1 20.6 3 30.5-23 20-51.5 30-80 30-14.2 0-28.3-2.6-41.7-7.4h-.3c-16.5-6-31.6-15.5-44.6-28.6-6.3-6.3-16.6-6.3-23 0-6.3 6.4-6.3 16.6 0 23 13.4 13.3 28.5 23.6 44.5 31-3.3 40.5-26.8 75.3-59.7 95-19-29-47.5-51.8-82.6-63-8.8-2.7-18 2-20.6 10.5-2.3 8.6 2 17.7 10.7 20.4 26 8 47 24.2 62 44.6-10 2.8-20.4 4.2-31.5 4.2h-2c-41.6 0-80 16.6-107.8 43.8-6.6 6.3-6.8 16.5-.3 23 3.2 3.2 7.5 4.8 12 4.8 3.6 0 7.7-1.5 10.8-4.6 22-21.5 52.3-34.5 85.4-34.5h2c78 0 143-58.2 153.2-133.6 11 2.4 22.2 3.7 33.5 3.7 31.6 0 63.6-10 90.6-29.4 9.8 22.5 25.4 42 44.3 57.4-19.4 23.7-30.7 52-33.7 80.7-8-1.2-16.7-2-25.2-2-24.4 0-49.3 6-72.4 18.3-8 4.2-11 14-6.7 22 2.8 5.4 8.5 8.6 14.3 8.6 2.7 0 5-.7 7.4-2 18.7-10 38-14.5 57.4-14.5 8.7 0 17.2 1 25.3 2.7 3.5 33 17.7 65 42.2 90.6 3.2 3.4 7.4 5 11.6 5 4 0 8.2-1.5 11.4-4.4 6.7-6.3 6.8-16.5.5-23h-.2c-21.7-23-33.2-52-34-81.6 0-.4.2-.8 0-1.3v-1.8c0-28.6 10-57 29.6-79.6 20.6 10.3 44 16.3 69 16.3h.5c67.3.3 121.8 54.7 122 122-12.7-3.3-26-5-39.4-5-19.3 0-39 3.5-57.8 11.3-8.3 3.4-12.3 13-9 21 3.5 8.4 12.8 12.4 21 9 15.2-6 30.6-9 45.8-9 12.3 0 24.4 2 35.8 5.5-4 18.2-11.8 32.8-24 45.8-.8.8-1.7 1.7-2.4 2.8-9.2 9-20.3 17.5-34 25.8-47 27.4-69.5 77.2-69 138.2v173.7h-55.4V744c0-60.6-38-118-86-138.6-22.8-9-46.7-23.7-64-43.2C411.8 579 382 589 350.2 589c-32 0-61.8-9.8-86.4-26.5-24.5 16-54 25.5-85.6 25.5C91.2 588 21 517.6 21 430.8c0-65 39.2-120.6 95.4-144.5 15.2-69.3 76.5-121 150.3-121 4 0 7.5.3 11 .5 28-40.7 74.7-67.4 127.6-67.4 26.3 0 51 6.6 72.5 18.2 24.4-16.2 53.5-25.6 85-25.6 40.2 0 77 15.7 104.5 41.3 11.5-2.8 23.4-4.4 36-4.4 62.2 0 116 37.4 140 91 63.4 19.2 109.4 78 109.4 147.4 0 14-1.8 27.3-5.3 40C967 432.5 979 465 979 500z"/></symbol><symbol viewBox="23 231 953 538" id="code"><path fill-rule="evenodd" d="M334 332.7L166.6 500.2 334 667.8c23.3 23 23.3 60.7 0 83.8-23 23-60.5 23-83.6 0L41 542c-23-23-23-60.5 0-83.6l209.4-209.6c23-23.2 60.5-23.2 83.6 0 23.3 23.2 23.3 60.8 0 84zm624.4 125l-208.7-209c-23-23-60.4-23-83.6 0-23 23-23 60.6 0 83.6l167 167-167 167.2c-23 23-23 60.5 0 83.6 23.3 23.2 60.6 23.2 83.7 0l208.7-209c23-23 23-60.3 0-83.3zM546.6 235c-32.4-5.6-63.2 16-69 48.5l-72.2 410.3c-5.7 32.5 16 63.3 48.3 69 32.3 5.8 63-15.8 69-48.3L594.8 304c5.5-32.2-16-63-48.4-69z"/></symbol><symbol viewBox="4 3 992 993" id="codepen"><path fill-rule="evenodd" d="M977 313.4L523.6 11.2c-14.3-9.6-33-9.6-47.3 0L23 313.4c-11.3 7.4-19 21-19 35.5v302c0 14.5 7.7 28 19 35.6l453.3 302.2c7.2 4.8 15.4 7.2 23.7 7.2 8.2 0 16.5-2.4 23.6-7.2L977 686.6c11.3-7.5 19-21 19-35.5V349c0-14.5-7.7-28.2-19-35.6zm-435.4-187l334 222.5-149.2 99.7L541.6 325V126.4zm-85.2 0V325L271.6 448.8 122.4 349l334-222.7zm-368 302.3L194.8 500 88.2 571.3V428.7zm368 445L122.4 651l149.2-99.7L456.4 675v198.7zm42.6-273L348.3 500 499 399.2 649.8 500 499 600.8zm42.6 273V675l184.8-123.7L875.6 651l-334 222.7zm368.2-302.4L803 500l107-71.3v142.6z"/></symbol><symbol viewBox="2 42 994 888" id="github"><path fill-rule="evenodd" d="M178.5 471.4c-46.3-.3-120.2 6-169 18-2.4 0-4-1-4.4-2.6-.3-2 1-3.8 2.8-4.3 48.3-12 119-18.5 168-18-11-32.6-16-69.5-16-110.8 0-73.3 23-101 54-140-23.6-83.4 8.5-140.5 8.5-140.5S272 63 365.8 129.8c51-21.7 186.6-23.5 250.7-4.8C656 99 728 62.4 757 72.8c7.8 12.5 24.8 49 10.3 129.6 10 17.7 61.2 55.3 61.2 161.6-.7 39.3-5 72.6-12.5 100.5 122.5-1.2 126.4 9 176 18 2 .5 3.4 2.4 3 4.2-.4 1.8-2 3-3.7 3-50.2-9-54.4-19-177.3-18-2.3 7-4.5 14-7.3 20.4 42 1.3 89 5.8 182.8 34 2 1 3 3 2.2 4.7-.3 1.7-1.7 2.7-3.4 2.7-96-29-145.5-33-184.7-34.3-34 74.3-103.8 102-216.6 113.4 36.7 23 47 51.6 47 129.2 0 77.5-1 87.8-.7 105.7.3 29 43.5 43 42 52.6-1.6 9.2-36.3 7.8-52.2 2.2-45.7-16-41.2-53.7-41.2-53.7L580.4 745s3-55.7-17.7-55.7v169.3c0 37 26 48.2 26 62 0 23.3-47.6-2.3-62.3-17-22.2-22.2-19.6-69.2-19-106.6.3-36-.5-115-.5-115l-15.3.5s6.2 172-8 203.4c-18.3 40.3-73.6 54-73.6 35.8 0-12.5 13.7-8.4 21.2-36 6.4-23.5 4.2-199 4.2-199s-17.7 10.4-17.7 43.3c0 15.2-.6 101-.6 126.6 0 32.3-46 50.5-68 50.5-11.2 0-25-.4-25-6.3 0-15 42-23.8 42-54.7 0-26.7-.6-95.7-.6-95.7S344 754 314 754c-76.4 0-100.6-48.5-112-75.5-15-35-34.4-51.8-55-65-12.5-8-15.5-17.8-1-20.4 67.6-12.6 85 76 130 90 32.3 10.3 73.7 6 94-7.2 3-27.2 22.8-50.5 39-62.8-114.8-11-182.8-50.6-218-114.2C71.4 501.5 71.4 518.5 21 531l-10.2 2.3c-2.5 0-4-1-4.5-2.6-.4-2 .8-4 2.7-4.6l10.7-2.5c50-12.4 49.3-29 167.8-32.3-3.6-6-6.4-12.8-9-19.8z"/></symbol><symbol viewBox="-95 94 1212 763" id="mail"><path fill-rule="evenodd" d="M21 171h963.4l-424 260.4c-44.4 27.3-115.5 26-158.7-3.3L21 171z"/><path fill-rule="evenodd" d="M982.6 172c-10-44.6-50-78-97.6-78H120c-47.7 0-87.6 33.4-97.6 78h960.2zm2.4 128.4V757c0 55.2-44.8 100-100 100H120c-55.2 0-100-44.8-100-100V312.3l363.7 232.2c47.6 30.3 126 31.8 175 3.3L985 300.4z"/></symbol><symbol viewBox="41 2 918 990" id="me"><path fill-rule="evenodd" d="M710.8 731.3c-88-38-76-61-79.2-92.4-.5-5.5-.8-11.3-1-17.2 26.8-27 47.8-64 62.7-102.6 4.5-11.7 7.5-21 10-30.6 20.2-4 32-25.4 36.5-45.2 4.5-8 14-27.8 11.8-50.2-2.2-22.6-10-35.7-19.7-43 1.3-10.3 2-19.6 2-27.5 0-40 16-162.3-27.2-207.4-23-24-45-48.7-76-67l3.4-13.6-33.6-.8c-.8-.4 1.8-18 1.8-18l-30 9.4L582 2l-46 18.7c-5.3-.3-10.6-.6-16.2-.7-67-1-124.8 24.4-166 60.5l-39 18.7L324 112c-.5.8-36.4 16.2-36.4 16.2l19.2 11.4c-.4 1-31.4 27-31.4 27l22.4-3.3c-21 66.7-22.4 164-22.4 172.4 0 1.3.4 4.7 1 9.8-13 5.7-25 19-27.6 47.7-2.2 22.4 7.2 42.2 11.8 50.2 4.5 20.2 16.6 42 37.4 45.4 2.6 9.6 5.7 19 9 28 16.3 42 38 79.5 65.5 106.7-.2 5.4-.5 10.6-1 15.4-3 31.4 6 54.4-82 92.3-88 38-220.4 78.4-247.5 139.4 234.5 111 494 205 916.4 0-27-61-159.6-101.4-247.6-139.4z"/></symbol><symbol viewBox="0 0 1000 1000" id="signature"><path fill-rule="evenodd" d="M865.7 507c-.3 0-.3 0 0 0 3.7-4.8 8.4-9 14.2-12 6-3.6 12.2-5 19-5h4c-6 4.6-11.7 8.6-17.3 12-5.8 3.5-11.8 5.3-18.2 5.3h-1.8v-.2zM730 523c10-7.7 20-15 30.4-22 11.6-6.2 22.5-10.2 32.6-12.2.4 1.5.6 3.6.6 5.5 0 4-1.8 7.2-6 9l-15.2 5.5-20.4 9.4c-7.2 3-13.2 4.7-18.5 4.7H730zm-49.6-125.8c9 19.3 1.8 36.3 1.5 40.3 0 1-1 1.5-1 2.5l-1.8-7c-3.7-11.3-9.5-18.7-10.4-25.2-2.3-17.3 4.4-18.2 11.6-10.6zM220 444.4c-8.5.5-32 4.7-33.5 4.7-3 0-7.2 2-12.3 5-9.6 6.2-19.4 15.2-29 27.2-12.2 14.5-18.2 27.2-18.2 37.5v2.2c0 4.8 1 8.2 2.6 10.8 1.8 1.8 4 3 7 3 2.6 0 6.6-1.2 12-4 5.8-2.3 9-3.5 9.8-4.3 14.5-5.4 26-12 34.8-20 11.6-10 17.4-21.7 17.4-34.4 0-2.8 0-4.8-.5-8.2-.6-2.5 4.4-6.4 9-6v1.8l1.4 5.5v7c0 5.4-.7 10.8-2.2 15.5-1.8 5-4 9.8-7.6 14.5 3 3.7 5.5 10 7 19.5 1.4 8 6.4 12.3 15.5 13V531c.5-1 .5-2 .5-2.3v-6.3c-.4-2-.4-4-.4-6.4 0-3.3.5-6 1.2-8.3.7-2.4 2.4-5 5-7.3 5-5 9-8.7 10.8-11.8 5.8-4 11-8 15.2-12 1 5.7 1.8 11.3 2.5 16.6.6 5 .8 11.2.8 18v11.2c0 3.2.3 6 1.4 8.3 1.2 2.2 4 4.5 8.3 7.3 3.2-5 7.2-12.7 12-23.3l9.7-21c1.3 7.6 2.6 15.8 4.4 24.3 2.3 11.4 7.8 17 16.3 16.3 4.7 0 10-1 16-3 130-15.5 71-171-65-194.6-77.4-13.6-203-7.3-250.2 69-65.3 124 36.3 219.3 149.8 232 171.1 12.7 250-85.7 266.3-111.7 0 0 12.3-13 15.4-29.8 1.8 1 7 5.5 15.8 14 8.5 8 15 12 19 12 2.8 0 5-1 6.8-3.3 1.4-2.3 2.7-5.2 3.6-9.2.3-3.6 1-5.4 1-6.3l2.6-6 5.8-11.8c2.7-5.4 6.2-11.6 10.5-18.5 3.7-4 7.3-8.3 11-13.2 2.3 5.4 4 13.4 5 23.6.5 4.3 1 12.7 1.2 25 .4 12.3 5 30.8 10.4 34.4 17.5 12 26.7-31.3 32.5-46.4v2.6c.4 5.8.6 14.5.6 25.3v6.4c0 5.3 1 9.3 3 12 2.3 2.2 5.2 3.5 9.2 3.5 5.5 0 12.7-2.7 21.8-8.4 5.4-3.5 11-7.5 16.8-12.5.4 1.8 1.8 4.3 3.7 8 2.7 6 7.6 9.2 14 9.2 3.5 0 23.5 2.3 30.7-6.2l.4.4c2.2-3.4 3.6-6.6 4.7-10 1-3.2 1.8-6.8 2.6-10.4l1-7.3.3 1c2.4 8.3 5 14.6 7.6 18.8 3.2 5.5 15.7 11 22 12.2 3.7 3.3 8.4 5 13.5 5 3.2 0 7.2-1 12-2.6l13.7-5c12.7-7.2 25-14 36.3-21 .5 8.2 1 17.3 1.8 27.3.4 9.5 43.5 4.4 49.5-6 .7 0 1.4.6 2.5 2l4.7 4.8c3 2.3 5.8 4 9 5 3.7.6 7.4 1 11.5 1 8 0 24-.6 33-4 19-7.3 37.6-19.4 38.5-20.3l3.2-2.6c21.8-14 23.2-20.4 25.8-20 79 93.5-219.4 46.2-464.2 56.5-102.3 4.2-150.5 94.7-148.7 95-.4 9 12.3 25.8 14 13 19.7-50 99-96 147-95.3 392.3 6 478.6 29.8 479-49.7-2.4-18.6-12-32.6-14-34-3.2-2.2-5.6-4.2-7.4-5.8l5.4-5.5c1.5-1.4 2.8-3 3.7-4.7 1.8-2.5 1-3 .7-5.4 0-2.5-3.6-6.5-6.7-8.5-4.7-3.2-6.4-1-12.3 6.8l-10 12.6c-4 3.6-14.2 31.5-36.8 42.4-1.5.7-3 1.8-4 3.2-6.4 2.6-13.4 4.2-19.6 6.2-8.5 3-16.7 1-23.6 1-4 0-7.2-.3-10.8-.8 3-2.7 7.6-5.5 13.4-7.3l18.5-5.8c5.4-2.4 10-5.5 14-9 5-5.2 7.5-10 7.5-15 0-3.3-1.2-6.2-3.6-9-3.6-5-9-7.3-16-7.3-6.8 0-14.4 1.8-23 6.3-7.2 3.6-13.4 7.8-17.4 12.2-2.7 2.5-5 7.2-7.6 13.6-2.3 6.5-4.3 10.3-5.8 11.2-1.4 1-14 7.8-15.8 8v.4c-1.8.5-3.6 1.4-5.4 2.3-4.7 2.4-13.8.4-13.8-3V499c0-8.6 0-17 .4-25.6.3-8.5 1-16.3 1.8-23l1.4-7.6c.4-2.8.8-5.5.8-8 0-3.3-.8-6-2.2-8.2-1.3-2.3-3.6-3.6-7.3-3.6-3.2 0-5.4 1.8-6.3 5-1 2.8-1.5 6.6-1.5 11v5.6l.6 5.4v9.4c0 3.7-.6 6.6-1.8 8.4-1.8 1.8-5.5 3.6-11 5.4-7.2 2.7-15 6.5-24 11.6l-23.2 14.5-11 6.6c-5.3 3.5-9 7-11.5 10.4-2.2-2.2-8-3-9-6-.8-3-2.3-7.3-4.3-12.7-2-5.8-3.6-9.8-4-12.2l-5.6-16.8 2.3-19.6c.7-6.6 1.8-13.7 3-21 2-11.7 2.6-20.8 1.5-27-1-6-3-9.7-6.7-11-8.4-11.6-24.7-7.3-28.5-3.6-11.5 4.7-8.7 19.2-9 21 0 1.8.3 3.6.8 5.4.7 2 1.8 4.6 3.6 7.3 4.8 8 7.2 12.2 8 13.3 2 4.4 3.7 8.6 5.2 12.7l5.8 18.2c-.7 2.7-1.8 6.3-2.7 11.4-2 7.2-2.4 35.5-12.7 45.7-1.8.7-4 .5-5.5 0-5.3-1.3-9-6-9-11 0-2-.5-4.6-1-8-.6-3-1-5.3-1-7v-5.6c0-8-.7-13.8-2.5-17.2-1.8-3.6-5-6-9.6-7.6-2.4 4.2-3.7 10.4-4 18.4 0 8-1.2 13.8-3.2 17.2-2.7 5.4-7.6 10.5-14.5 15-6.7 4-12.7 6.6-17.7 7l-1.3-7.7v-22.4c0-1.4 0-4 .5-8.3 1-4 1-6.7 1-8.2 0-3-.4-6.2-1.7-9.7-1.7-5-4-7.2-6.8-7.2-1 0-1.8.4-3 1.2-9.7-5.5-21.6 59-24.3 58.3-5.2-1-2.3-5-3.8-16-3.6-22.6-5.4-37.4-5.4-44.5v-25.4c0-3.3-1-6.7-3-10-2-3.8-4.6-5.2-7.3-5.2-3 0-5.5 1.8-8.2 5.4v3.6l-19.2 29-18 28.2c-5 6.5-9 12.3-12.2 17.4-6.2-4.4-12-9.5-17-15.3-6-7-9.5-14.5-10.4-22.3-1-8-1.8-13-2.2-15.2-1.4-6.2-5.4-10.5-11.6-13l-2 7.6c-.7 1.8-1 4-1 5.8 0 1.8 0 3 .7 4.3l-3.7.5-8 1.2c0 5 2.6 10.2 7 15.8 4 5.4 6.3 10 6.3 14 0 18.6-17.7 39-17.7 39-20.3 22-78.3 104-243 98.4-28-.6-195-47-149.5-192.8 25.3-81.6 197.6-100.5 264.7-70.8 107 47.2 137.4 137 46.2 155.6l-9.6-.3c-5.3 0-8.6-2-10.2-5.5-1-2.5-1.8-7.2-1.8-14.5 0-6.2-.6-11-1.5-14-1-3.4-2.7-6-4.7-8-1.8-2-4.2-3-6.5-3-4 0-8.2 3-13 8.3-2.4 3-5 6.7-7.7 11.6-1.3-5.8-2.5-12-4.3-18.5-2.6-8.2-6.4-12.6-11.5-12.6-2 0-4.5 1-7.2 2.4-.4 0-6.4 5-17.6 14.5-4 3.3-7 5.4-9 6.4l.5-7 .3-10.3c0-4.7-.5-8.7-1.8-12-.7-3.2-2.7-5.7-5.8-7.2-1.8-.7-3-1.3-4.5-1.3-1.8 0-2.7.3-3.6 1v.4zm-23.3 28c0 10.4-7.3 20.6-21 30-12.6 8.7-23.8 13-33.4 13 1.8-5 5.4-11.4 10.5-19 5.4-7.8 10.3-13.2 15.4-16.7l12-9c5.4-3.6 9.8-5.5 12.7-5.5 1 0 2 .6 2.8 2 .7.6 1 2.4 1 5.3zm-92.5-57.2c0-3-16.7-4-16.3 5.4.2 2.6-1.2 65.3-1.2 69.5 0 2 0 5.5-.6 11.3l-.5 12-4.2 27.2c0 4 1 7.8 2.7 11 2 3.5 4.2 5.3 7.3 5.3 1.5 0 3-.7 4.7-1.4 1.8-1 3.3-3 3.6-6 .8-3 1-7.3 1-12.2v-13.8c0-.7.5-3.6 1.6-9l.3-6.5.6-9.2-.6-9V479l2-63.8-.5-.2z"/></symbol><symbol viewBox="19 20 962 962" id="tools"><g fill-rule="evenodd"><path d="M799.7 200c-25.7-25.8-25.7-67.6 0-93.3L859 47.2c7-6.8 2.8-17.6-6.6-20.3-58-16.3-124.3-1.4-170.3 44.5-50 50-62 121.7-40.4 182.5 1.4 4 1.4 9.5-2.7 13.5L267.3 639.2c-4 4-8 4-13.5 2.7-62.3-23-134-9.6-182.5 40.5C24.2 729.8 10.7 794.5 27 854c2.6 9.6 14.8 12.3 21.5 5.5L108 800c25.6-25.6 67.5-25.6 93.2 0 25.7 25.7 25.7 67.6 0 93.3l-59.4 59.5c-6.8 6.7-4 19 5.4 21.6 58 16.2 124.2 2.7 170.2-44.6 50-50 62-121.6 40.5-182.5-1.4-4-1.4-9.4 2.6-13.5l373-373c4-4 8-4 13.4-2.7 62 23 133.7 9.5 182.4-40.5 46-46 60.8-112.2 44.5-170.3-2.8-9.4-15-12-21.7-5.4l-60.8 58c-25.6 27.2-66.2 27.2-91.8 0z"/><path d="M358 473l114.7-115c6.8-6.7 6.8-19 0-25.6l-281-281C155.3 14.7 90.4 10.6 51.2 47 10.7 85 9.4 150 48.5 189.2L332.2 473c6.8 6.7 19 6.7 25.7 0zm572.7 377c-2.7-2.6-5.4-5.4-8-6.7l-50-25.7c-1.4-1.3-4-2.7-5.5-4L624 570.3c-6.7-6.8-19-6.8-25.6 0L568.7 600c-6.8 6.8-6.8 19 0 25.7l243 243.3c1.5 1.3 2.8 4 4.2 5.4l25.5 50c1.4 2.7 4 5.4 6.8 8l66.2 44.7c8 5.5 20.3 4.2 27-2.6l29.7-29.7c6.8-6.8 8-19 2.7-27L930.6 850z"/></g></symbol><symbol viewBox="2 95 997 810" id="twitter"><path fill-rule="evenodd" d="M880.6 223c42.2-25.3 74.6-65.3 90-113-39.6 23.4-83.3 40.4-130 49.5-37-39.7-90.3-64.5-149-64.5-113 0-204.4 91.5-204.4 204.3 0 16 1.8 31.6 5.3 46.6-169.8-8.6-320.4-90-421.2-213.6-17.5 30.2-27.6 65.3-27.6 102.7 0 71 36 133.6 91 170.2-33.6-1-65-10.2-92.7-25.5v2.5c0 99 70.4 181.6 164 200.4-17.2 4.7-35.3 7.2-54 7.2-13 0-26-1.3-38.4-3.7 26 81.3 101.5 140.4 191 142-70 54.8-158 87.5-254 87.5-16.3 0-32.6-1-48.6-3 90.4 58 197.8 92 313.2 92 376 0 581.4-311.4 581.4-581.5 0-8.8-.2-17.6-.6-26.4 40-28.8 74.6-64.8 102-105.8C961.4 207 922 218 880.6 223z"/></symbol></svg>