<svg xmlns="http://www.w3.org/2000/svg" viewBox="23 231 953 538"><path fill="#000" fill-rule="evenodd" d="M334 332.7L166.6 500.2 334 667.8c23.3 23 23.3 60.7 0 83.8-23 23-60.5 23-83.6 0L41 542c-23-23-23-60.5 0-83.6l209.4-209.6c23-23.2 60.5-23.2 83.6 0 23.3 23.2 23.3 60.8 0 84zm624.4 125l-208.7-209c-23-23-60.4-23-83.6 0-23 23-23 60.6 0 83.6l167 167-167 167.2c-23 23-23 60.5 0 83.6 23.3 23.2 60.6 23.2 83.7 0l208.7-209c23-23 23-60.3 0-83.3zM546.6 235c-32.4-5.6-63.2 16-69 48.5l-72.2 410.3c-5.7 32.5 16 63.3 48.3 69 32.3 5.8 63-15.8 69-48.3L594.8 304c5.5-32.2-16-63-48.4-69z"/></svg>