<svg xmlns="http://www.w3.org/2000/svg" viewBox="4 3 992 993"><path fill-rule="evenodd" d="M977 313.4L523.6 11.2c-14.3-9.6-33-9.6-47.3 0L23 313.4c-11.3 7.4-19 21-19 35.5v302c0 14.5 7.7 28 19 35.6l453.3 302.2c7.2 4.8 15.4 7.2 23.7 7.2 8.2 0 16.5-2.4 23.6-7.2L977 686.6c11.3-7.5 19-21 19-35.5V349c0-14.5-7.7-28.2-19-35.6zm-435.4-187l334 222.5-149.2 99.7L541.6 325V126.4zm-85.2 0V325L271.6 448.8 122.4 349l334-222.7zm-368 302.3L194.8 500 88.2 571.3V428.7zm368 445L122.4 651l149.2-99.7L456.4 675v198.7zm42.6-273L348.3 500 499 399.2 649.8 500 499 600.8zm42.6 273V675l184.8-123.7L875.6 651l-334 222.7zm368.2-302.4L803 500 910 428.7v142.6z"/></svg>