<svg xmlns="http://www.w3.org/2000/svg" viewBox="2 42 994 888"><path fill="#000" fill-rule="evenodd" d="M178.5 471.4c-46.3-.3-120.2 6-169 18-2.4 0-4-1-4.4-2.6-.3-2 1-3.8 2.8-4.3 48.3-12 119-18.5 168-18-11-32.6-16-69.5-16-110.8 0-73.3 23-101 54-140-23.6-83.4 8.5-140.5 8.5-140.5S272 63 365.8 129.8c51-21.7 186.6-23.5 250.7-4.8C656 99 728 62.4 757 72.8c7.8 12.5 24.8 49 10.3 129.6 10 17.7 61.2 55.3 61.2 161.6-.7 39.3-5 72.6-12.5 100.5 122.5-1.2 126.4 9 176 18 2 .5 3.4 2.4 3 4.2-.4 1.8-2 3-3.7 3-50.2-9-54.4-19-177.3-18-2.3 7-4.5 14-7.3 20.4 42 1.3 89 5.8 182.8 34 2 1 3 3 2.2 4.7-.3 1.7-1.7 2.7-3.4 2.7-96-29-145.5-33-184.7-34.3-34 74.3-103.8 102-216.6 113.4 36.7 23 47 51.6 47 129.2 0 77.5-1 87.8-.7 105.7.3 29 43.5 43 42 52.6-1.6 9.2-36.3 7.8-52.2 2.2-45.7-16-41.2-53.7-41.2-53.7L580.4 745s3-55.7-17.7-55.7v169.3c0 37 26 48.2 26 62 0 23.3-47.6-2.3-62.3-17-22.2-22.2-19.6-69.2-19-106.6.3-36-.5-115-.5-115l-15.3.5s6.2 172-8 203.4c-18.3 40.3-73.6 54-73.6 35.8 0-12.5 13.7-8.4 21.2-36 6.4-23.5 4.2-199 4.2-199s-17.7 10.4-17.7 43.3c0 15.2-.6 101-.6 126.6 0 32.3-46 50.5-68 50.5-11.2 0-25-.4-25-6.3 0-15 42-23.8 42-54.7 0-26.7-.6-95.7-.6-95.7S344 754 314 754c-76.4 0-100.6-48.5-112-75.5-15-35-34.4-51.8-55-65-12.5-8-15.5-17.8-1-20.4 67.6-12.6 85 76 130 90 32.3 10.3 73.7 6 94-7.2 3-27.2 22.8-50.5 39-62.8-114.8-11-182.8-50.6-218-114.2C71.4 501.5 71.4 518.5 21 531l-10.2 2.3c-2.5 0-4-1-4.5-2.6-.4-2 .8-4 2.7-4.6l10.7-2.5c50-12.4 49.3-29 167.8-32.3-3.6-6-6.4-12.8-9-19.8z"/></svg>