<svg xmlns="http://www.w3.org/2000/svg" viewBox="4 121 993 758"><path fill-rule="evenodd" d="M224.7 492.2c-3-5.7-5.5-11.6-7.8-17.8-40.8-.3-166 5.4-209 16-2.2 0-3.6-1-4-2.4-.3-1.7.7-3.4 2.4-3.8 42.6-10.5 165-16.3 208.2-16-9.8-28.6-14-61.2-14-97.6 0-64.7 20.2-89 47.5-123.5-20.8-73.6 7.5-124 7.5-124s43.8-9 126.6 50c45-19.2 164.6-20.8 221.2-4.3 34.7-22.8 98.3-55.2 124-46 6.8 11 21.8 43.3 9 114.3 8.7 15.6 54 48.8 54 142.6-.6 34.6-4.3 64-11 88.6 108-1 171.5 8 215.2 16 1.7.3 3 2 2.6 3.6-.3 1.6-1.7 2.6-3.2 2.6-44.3-8-108-16.8-216.4-15.8-2 6.2-4 12.2-6.4 18 37 1 138.5 5 221.2 30 1.7.7 2.7 2.4 2 4-.3 1.5-1.5 2.4-3 2.4-84.8-25.6-188.4-29-223-30.3-30 65.5-91.5 90-191 100 32.3 20.2 41.5 45.5 41.5 114 0 68.3-1 77.4-.7 93.2.3 25.7 38.4 38 37 46.4-1.4 8.2-32 7-46 2-40.4-14-36.4-47.3-36.4-47.3l-1.3-91.3s2.7-49.2-15.6-49.2V816c0 32.7 23 42.5 23 54.6 0 20.6-42-2-55-15-19.6-19.5-17.3-61-16.8-94 .3-31.8-.4-101.3-.4-101.3l-13.4.3s5.5 151.8-7 179.5c-16.2 35.6-65 47.8-65 31.6 0-11 12-7.4 18.6-31.8 5.7-20.7 3.7-175.5 3.7-175.5s-15.6 9.2-15.6 38.2c0 13.3-.5 89-.5 111.6 0 28.5-40.6 44.6-60 44.6-10 0-22.2-.5-22.2-5.7 0-13.2 37-21 37-48.2 0-23.6-.4-84.5-.4-84.5s-19 3.2-45.5 3.2c-67.3 0-88.6-42.7-98.7-66.5-13.2-31-30.3-45.7-48.5-57.3-11-7.2-13.7-15.7-.8-18 59.6-11.2 74.8 67 114.6 79.4 28.5 9 65 5.2 83-6.5 2.5-24 20-44.5 34.3-55.4C319 589.6 259 554.7 228 498.6 122.3 501 62.3 516 18 527L9 529c-2.2 0-3.5-1-4-2.3-.4-1.8.7-3.6 2.4-4l9.4-2.3c44-11 103.5-25.7 208-28.5z"/></svg>