<svg xmlns="http://www.w3.org/2000/svg" viewBox="41 2 918 990"><path fill-rule="evenodd" d="M710.8 731.3c-88-38-76-61-79.2-92.4-.5-5.5-.8-11.3-1-17.2 26.8-27 47.8-64 62.7-102.6 4.5-11.7 7.5-21 10-30.6 20.2-4 32-25.4 36.5-45.2 4.5-8 14-27.8 11.8-50.2-2.2-22.6-10-35.7-19.7-43 1.3-10.3 2-19.6 2-27.5 0-40 16-162.3-27.2-207.4-23-24-45-48.7-76-67l3.4-13.6-33.6-.8c-.8-.4 1.8-18 1.8-18l-30 9.4L582 2l-46 18.7c-5.3-.3-10.6-.6-16.2-.7-67-1-124.8 24.4-166 60.5l-39 18.7L324 112c-.5.8-36.4 16.2-36.4 16.2l19.2 11.4c-.4 1-31.4 27-31.4 27l22.4-3.3c-21 66.7-22.4 164-22.4 172.4 0 1.3.4 4.7 1 9.8-13 5.7-25 19-27.6 47.7-2.2 22.4 7.2 42.2 11.8 50.2 4.5 20.2 16.6 42 37.4 45.4 2.6 9.6 5.7 19 9 28 16.3 42 38 79.5 65.5 106.7-.2 5.4-.5 10.6-1 15.4-3 31.4 6 54.4-82 92.3-88 38-220.4 78.4-247.5 139.4 234.5 111 494 205 916.4 0-27-61-159.6-101.4-247.6-139.4z"/></svg>