<svg xmlns="http://www.w3.org/2000/svg" viewBox="19 20 962 962"><g fill="#000" fill-rule="evenodd"><path d="M799.7 200c-25.7-25.8-25.7-67.6 0-93.3L859 47.2c7-6.8 2.8-17.6-6.6-20.3-58-16.3-124.3-1.4-170.3 44.5-50 50-62 121.7-40.4 182.5 1.4 4 1.4 9.5-2.7 13.5L267.3 639.2c-4 4-8 4-13.5 2.7-62.3-23-134-9.6-182.5 40.5C24.2 729.8 10.7 794.5 27 854c2.6 9.6 14.8 12.3 21.5 5.5L108 800c25.6-25.6 67.5-25.6 93.2 0 25.7 25.7 25.7 67.6 0 93.3l-59.4 59.5c-6.8 6.7-4 19 5.4 21.6 58 16.2 124.2 2.7 170.2-44.6 50-50 62-121.6 40.5-182.5-1.4-4-1.4-9.4 2.6-13.5l373-373c4-4 8-4 13.4-2.7 62 23 133.7 9.5 182.4-40.5 46-46 60.8-112.2 44.5-170.3-2.8-9.4-15-12-21.7-5.4l-60.8 58c-25.6 27.2-66.2 27.2-91.8 0z"/><path d="M358 473l114.7-115c6.8-6.7 6.8-19 0-25.6l-281-281C155.3 14.7 90.4 10.6 51.2 47 10.7 85 9.4 150 48.5 189.2L332.2 473c6.8 6.7 19 6.7 25.7 0zM930.7 850c-2.7-2.6-5.4-5.4-8-6.7l-50-25.7c-1.4-1.3-4-2.7-5.5-4L624 570.3c-6.7-6.8-19-6.8-25.6 0L568.7 600c-6.8 6.8-6.8 19 0 25.7l243 243.3c1.5 1.3 2.8 4 4.2 5.4l25.5 50c1.4 2.7 4 5.4 6.8 8l66.2 44.7c8 5.5 20.3 4.2 27-2.6l29.7-29.7c6.8-6.8 8-19 2.7-27L930.6 850z"/></g></svg>