<svg xmlns="http://www.w3.org/2000/svg" viewBox="2 95 997 810"><path fill-rule="evenodd" d="M880.6 223c42.2-25.3 74.6-65.3 90-113-39.6 23.4-83.3 40.4-130 49.5-37-39.7-90.3-64.5-149-64.5-113 0-204.4 91.5-204.4 204.3 0 16 1.8 31.6 5.3 46.6-169.8-8.6-320.4-90-421.2-213.6-17.5 30.2-27.6 65.3-27.6 102.7 0 71 36 133.6 91 170.2-33.6-1-65-10.2-92.7-25.5v2.5c0 99 70.4 181.6 164 200.4-17.2 4.7-35.3 7.2-54 7.2-13 0-26-1.3-38.4-3.7 26 81.3 101.5 140.4 191 142-70 54.8-158 87.5-254 87.5-16.3 0-32.6-1-48.6-3 90.4 58 197.8 92 313.2 92 376 0 581.4-311.4 581.4-581.5 0-8.8-.2-17.6-.6-26.4 40-28.8 74.6-64.8 102-105.8C961.4 207 922 218 880.6 223z"/></svg>